<mxfile host="app.diagrams.net" modified="2024-06-11T13:50:32.322Z" agent="Mozilla/5.0 (Windows NT 10.0; Win64; x64) AppleWebKit/537.36 (KHTML, like Gecko) Chrome/125.0.0.0 Safari/537.36" version="24.5.3" etag="qOJjR3v-FtaoXib0tkfc" type="github">
  <diagram name="Page-1" id="2ws5QZKbfGgkW09ksla0">
    <mxGraphModel>
      <root>
        <mxCell id="0" />
        <mxCell id="1" parent="0" />
      </root>
    </mxGraphModel>
  </diagram>
</mxfile>
